<?xml version="1.0" encoding="UTF-8" standalone="no"?>
<svg
   class="ionicon"
   viewBox="0 0 512 512"
   version="1.1"
   id="svg8"
   sodipodi:docname="musical-notes-outline.svg"
   inkscape:version="1.1.2 (0a00cf5339, 2022-02-04)"
   xmlns:inkscape="http://www.inkscape.org/namespaces/inkscape"
   xmlns:sodipodi="http://sodipodi.sourceforge.net/DTD/sodipodi-0.dtd"
   xmlns="http://www.w3.org/2000/svg"
   xmlns:svg="http://www.w3.org/2000/svg"
   xmlns:rdf="http://www.w3.org/1999/02/22-rdf-syntax-ns#"
   xmlns:cc="http://creativecommons.org/ns#"
   xmlns:dc="http://purl.org/dc/elements/1.1/">
  <defs
     id="defs12" />
  <sodipodi:namedview
     id="namedview10"
     pagecolor="#ffffff"
     bordercolor="#666666"
     borderopacity="1.0"
     inkscape:pageshadow="2"
     inkscape:pageopacity="0.0"
     inkscape:pagecheckerboard="0"
     showgrid="false"
     inkscape:zoom="1.3320312"
     inkscape:cx="130.62757"
     inkscape:cy="256"
     inkscape:window-width="1920"
     inkscape:window-height="918"
     inkscape:window-x="0"
     inkscape:window-y="25"
     inkscape:window-maximized="1"
     inkscape:current-layer="svg8" />
  <title
     id="title2">Musical Notes</title>
  <path
     d="M192 218v-6c0-14.84 10-27 24.24-30.59l174.59-46.68A20 20 0 01416 154v22"
     stroke-linecap="round"
     stroke-linejoin="round"
     class="ionicon-fill-none ionicon-stroke-width"
     id="path4"
     style="fill:none;stroke:#ff922b;stroke-opacity:1;stroke-width:26;stroke-miterlimit:4;stroke-dasharray:none" />
  <path
     d="M416 295.94v80c0 13.91-8.93 25.59-22 30l-22 8c-25.9 8.72-52-10.42-52-38h0a33.37 33.37 0 0123-32l51-18.15c13.07-4.4 22-15.94 22-29.85V58a10 10 0 00-12.6-9.61L204 102a16.48 16.48 0 00-12 16v226c0 13.91-8.93 25.6-22 30l-52 18c-13.88 4.68-22 17.22-22 32h0c0 27.58 26.52 46.55 52 38l22-8c13.07-4.4 22-16.08 22-30v-80"
     stroke-linecap="round"
     stroke-linejoin="round"
     class="ionicon-fill-none ionicon-stroke-width"
     id="path6"
     style="fill:none;stroke:#ff922b;stroke-opacity:1;stroke-width:26;stroke-miterlimit:4;stroke-dasharray:none" />
  <metadata
     id="metadata1015">
    <rdf:RDF>
      <cc:Work
         rdf:about="">
        <dc:title>Musical Notes</dc:title>
      </cc:Work>
    </rdf:RDF>
  </metadata>
</svg>
