<?xml version="1.0" encoding="UTF-8" standalone="no"?>
<svg
   class="ionicon"
   viewBox="0 0 512 512"
   version="1.1"
   id="svg12"
   sodipodi:docname="people-outline.svg"
   inkscape:version="1.1.2 (0a00cf5339, 2022-02-04)"
   xmlns:inkscape="http://www.inkscape.org/namespaces/inkscape"
   xmlns:sodipodi="http://sodipodi.sourceforge.net/DTD/sodipodi-0.dtd"
   xmlns="http://www.w3.org/2000/svg"
   xmlns:svg="http://www.w3.org/2000/svg"
   xmlns:rdf="http://www.w3.org/1999/02/22-rdf-syntax-ns#"
   xmlns:cc="http://creativecommons.org/ns#"
   xmlns:dc="http://purl.org/dc/elements/1.1/">
  <defs
     id="defs16" />
  <sodipodi:namedview
     id="namedview14"
     pagecolor="#ffffff"
     bordercolor="#666666"
     borderopacity="1.0"
     inkscape:pageshadow="2"
     inkscape:pageopacity="0.0"
     inkscape:pagecheckerboard="0"
     showgrid="false"
     inkscape:zoom="1.3320312"
     inkscape:cx="249.99413"
     inkscape:cy="256"
     inkscape:window-width="1920"
     inkscape:window-height="918"
     inkscape:window-x="0"
     inkscape:window-y="25"
     inkscape:window-maximized="1"
     inkscape:current-layer="svg12" />
  <title
     id="title2">People</title>
  <path
     d="M402 168c-2.93 40.67-33.1 72-66 72s-63.12-31.32-66-72c-3-42.31 26.37-72 66-72s69 30.46 66 72z"
     stroke-linecap="round"
     stroke-linejoin="round"
     class="ionicon-fill-none ionicon-stroke-width"
     id="path4"
     style="fill:none;stroke:#ff922b;stroke-opacity:1;stroke-width:26;stroke-miterlimit:4;stroke-dasharray:none" />
  <path
     d="M336 304c-65.17 0-127.84 32.37-143.54 95.41-2.08 8.34 3.15 16.59 11.72 16.59h263.65c8.57 0 13.77-8.25 11.72-16.59C463.85 335.36 401.18 304 336 304z"
     stroke-miterlimit="10"
     class="ionicon-fill-none ionicon-stroke-width"
     id="path6"
     style="stroke:#ff922b;fill:none;stroke-opacity:1;stroke-width:26;stroke-miterlimit:10;stroke-dasharray:none" />
  <path
     d="m 204.50875,185.94 c -2.34,32.48 -26.72,58.06 -53,58.06 -26.28,0 -50.7,-25.57 -52.999998,-58.06 -2.39,-33.79 21.339998,-57.94 52.999998,-57.94 31.66,0 55.39,24.77 53,57.94 z"
     stroke-linecap="round"
     stroke-linejoin="round"
     class="ionicon-fill-none ionicon-stroke-width"
     id="path8"
     style="fill:none;stroke:#ff922b;stroke-width:26;stroke-miterlimit:4;stroke-dasharray:none;stroke-opacity:1" />
  <path
     d="m 208.24338,306 c -18.05,-8.27 -37.93,-11.45 -59,-11.45 -52.000001,0 -102.100001,25.85 -114.650001,76.2 -1.65,6.66 2.53,13.25 9.37,13.25 H 156.24338"
     stroke-linecap="round"
     stroke-miterlimit="10"
     class="ionicon-fill-none ionicon-stroke-width"
     id="path10"
     style="fill:none;stroke:#ff922b;stroke-width:26;stroke-miterlimit:10;stroke-dasharray:none;stroke-opacity:1" />
  <metadata
     id="metadata1029">
    <rdf:RDF>
      <cc:Work
         rdf:about="">
        <dc:title>People</dc:title>
      </cc:Work>
    </rdf:RDF>
  </metadata>
</svg>
