<svg version="1.2" xmlns="http://www.w3.org/2000/svg" viewBox="0 0 552 94" width="552" height="94"><style>.a{fill:#333}</style><path class="a" d="m16.5 70.8q-9.9 0-13.7-4.5-2.1-2.3-2.1-5.3 0-7 10.6-15.3 3.4-2.8 6.6-2.8 0.7 0 0.7 0.3 0 0.7-2.4 1.7-4.2 1.7-7.3 6.4-3.1 4.8-3.1 9.2 0 7.9 12.5 7.9 7.8 0 13.8-2.4 13.1-5.1 20.9-13.2 6.9-7 6.9-13.3 0-7.8-9.4-7.8-14.9 0-22.2-3.7-5.9-3-5.9-8 0-8.6 13-14.3 10.6-4.8 20.2-4.8 7.8 0 12.3 3.2 1.2 0.7 1.2 2 0 1.8-2.3 3.8-2.3 1.9-3.4 1.7-0.2 0 0.7-1.2 1.3-1.6 1.3-2.9 0-1.1-0.9-2-2.6-2.9-9.7-2.9-7.8 0-16.1 3.5-8.6 3.7-10.5 8.7-0.9 2.5-0.9 4.6 0 8.7 24.4 8.7 14.7 0 14.7 8.8 0 7.5-9.5 17-9.7 9.5-21 13.4-10.1 3.5-19.4 3.5zm55.6-7q-2.8 0-5-1.4-2.8-1.9-2.8-5.7 0-4 3.4-9.8 4.6-7.5 13.6-13.2 2.2-1.5 4.5-1.5 2.9 0 4.2 1.9 0.8 1.1 0.8 2.4 0 4.2-6.7 9.1-2 1.3-4.2 2.5-2.2 1.1-4.7 1.6l-4.2 0.9q-2.4 4.2-2.4 7 0 3.9 4.6 3.9 3.6 0 8.8-3 7-4 12-11.2 0.8-1.2 1.5-1.2 0.3 0 0.3 0.4 0 0.5-0.7 1.5-9.5 14.3-21.5 15.7-0.4 0.1-0.8 0.1-0.3 0-0.7 0zm0-14.9q2.8 0 7.1-2.5 6.1-3.4 8.5-8.8 0.7-1.4 0.7-2.2 0-0.9-0.7-0.9-1.2 0-5.2 3.1-2.8 2.5-5.6 5.3-2.6 2.8-5 5.9-0.1 0.1 0.2 0.1zm16.5 15.3q-1.4 0-1.4-0.9 0-0.1 0.2-0.7 4.6-8.8 10.9-25.2 0.7-1.7 2.4-3 1.6-1.4 2.8-1.4 1.3 0 1.1 1.4-1 2-2.4 5.3-1.3 3.2-3.2 7.5 2.7-3.6 8.1-8.1 2.8-2.3 4.7-3.7 2.1-1.5 3.5-2.2 1.3-0.7 3-0.7 2 0 3.3 1 1.4 1 1.4 2.3 0 0.7-0.8 1.7-0.7 0.9-1.4 0.9-0.4 0-1.7-0.8-1.2-0.9-2.6-0.9-1.4 0-3.4 0.9-12.4 5.6-21.5 25.2-0.5 1.4-3 1.4zm23.3 29q-3.7 0-3.7-3.7 0-3.1 2.7-7.3 1.6-2.6 4.2-5.6 2.6-3 6.2-6.3 6.5-6.3 13.8-10.9 0.8-2.2 1.9-5.3 1.1-3.2 2.5-7.5-0.3 0.7-2.2 2.9-1.7 2-5.2 5.8-8.2 9.1-11.6 8.2-5.3-1.4-5.3-5.9 0-4.4 5.2-11.6 1.4-1.9 3.6-3.9 2.1-1.9 4.9-3.8 6.9-4.8 13.1-4.8 3.8 0 7 2 0.9 0.6 0.9 1.4 0 0.9-0.4 0.9-0.1 0-0.2-0.1-2-2.2-5.4-2.2-4 0-9 3-5 3-9.2 8.1-6.6 8.1-6.6 12.6 0 2 1.6 2.7 2.1 0.9 10.8-8.7 3.5-3.8 5.9-6.9 2.6-3 4-5.2 0.7-0.9 2-0.9 2.3 0 2.3 1.7 0 0.4-0.2 0.9-0.7 2-1.9 5.3-1.2 3.2-2.9 7.8 3.2-1.8 5-1.8 0.8 0 0.8 0.4 0 1-2.4 1.8-1 0.4-2.2 0.9-1.1 0.5-2.3 1.2-6.9 17-16.6 28.1-5.9 6.7-11.1 6.7zm2.1-2.1q1.9 0 4.5-3 8.7-9.8 15.3-25.7-13 9.7-19.4 20.2-2.2 3.4-2.2 6.1 0 2.4 1.8 2.4zm42.6-27.3q-2.8 0-5-1.4-2.8-1.9-2.8-5.7 0-4 3.4-9.8 4.6-7.5 13.5-13.2 2.3-1.5 4.5-1.5 3 0 4.3 1.9 0.7 1.1 0.7 2.4 0 4.2-6.6 9.1-2 1.3-4.2 2.5-2.2 1.1-4.7 1.6l-4.3 0.9q-2.3 4.2-2.3 7 0 3.9 4.6 3.9 3.6 0 8.8-3 7-4 12-11.2 0.8-1.2 1.4-1.2 0.3 0 0.3 0.4 0 0.5-0.6 1.5-9.6 14.3-21.5 15.7-0.4 0.1-0.8 0.1-0.3 0-0.7 0zm0-14.9q2.8 0 7.1-2.5 6.1-3.4 8.5-8.8 0.7-1.4 0.7-2.2 0-0.9-0.7-0.9-1.3 0-5.2 3.1-2.8 2.5-5.6 5.3-2.6 2.8-5.1 5.9-0.1 0.1 0.3 0.1zm38.6-20.3q-1.5 0.2-3.4-0.4-1.8-0.6-1.8-1.5 0-0.5 0.4-1.1 0.4-0.7 1-1.4 1.7-2.1 2-2.6 0.3-0.5 1.1-0.5 2.2 0 3.5 2.1 0.1 0.1 0.1 0.4 0 0.9-1 2.6-1.3 2.3-1.9 2.4zm-14.8 35.4q-5.6-1.3-5.6-4.5 0-1.6 3.8-11.1 1.1-1.9 2.8-5.4 1.9-3.6 4.6-8.8 0.5-0.8 2.2-0.8 1.4 0 2.8 0.5 1.5 0.4 1.2 0.8-12.9 18.3-12.9 25.4 0 2 1.3 2 2.7 0 8.4-3.7 6.7-4.6 11.3-11.1 1-1.5 2-1.5 0.3 0 0.3 0.2 0 0.5-0.9 1.9-4.3 6.8-12 12-6.8 4.7-9.3 4.1zm51.4 6.8q-9.9 0-13.7-4.5-2.1-2.3-2.1-5.3 0-7 10.6-15.3 3.4-2.8 6.6-2.8 0.7 0 0.7 0.3 0 0.7-2.4 1.7-4.2 1.7-7.3 6.4-3.1 4.8-3.1 9.2 0 7.9 12.6 7.9 7.7 0 13.7-2.4 13.1-5.1 20.9-13.2 6.9-6.9 6.9-13.3 0-7.8-9.4-7.8-14.9 0-22.2-3.7-5.9-3-5.9-8 0-8.6 13-14.3 10.6-4.8 20.2-4.8 7.8 0 12.3 3.2 1.2 0.7 1.2 2 0 1.8-2.3 3.8-2.3 1.9-3.4 1.7-0.2 0 0.7-1.2 1.3-1.6 1.3-2.9 0-1.1-0.9-2-2.6-2.9-9.7-2.9-7.8 0-16.1 3.5-8.6 3.7-10.5 8.7-0.9 2.5-0.9 4.6 0 8.7 24.4 8.7 14.7 0 14.7 8.8 0 7.5-9.5 17-9.7 9.5-21 13.4-10.1 3.5-19.4 3.5zm72.1-6.7q-1.9 0-3.6-1.3-1.6-1.3-1.9-2.4-0.3-1.4 3.7-9.8l-2.3 3.2q-1.5 2.1-2.9 3.8-1.5 1.7-2.8 3-3.7 3.5-6.3 2.9-5.8-1.4-5.8-6.7 0-4.2 4-10.8 1.3-1.9 3.2-3.9 2-1.9 4.5-3.8 6.6-4.8 12.7-4.8 3.7 0 7 2 1.1 0.7 1.1 1.6 0 0.7-0.4 0.7-0.1 0-0.2-0.1-2-2.2-5.5-2.2-4 0-8.7 3-4.7 3-8.4 8.1-5.3 7.4-5.3 12 0 2.6 1.8 3.3 2.4 1 10-8.7 3.2-3.8 5.2-6.9 2.2-3 3.5-5.2 0.6-1 2.1-1 3 0 3 1.7 0 0.3-0.1 0.4-8.6 13.5-8.6 18.4 0 1.1 0.7 1.2 2.1 0.6 6.9-3 5.8-4.3 10.9-11.5 1-1.4 1.9-1.4 0.3 0 0.3 0.1 0 0.5-0.9 1.9-2 3.2-4.6 6.1-2.4 2.8-5.5 5.3-4.3 3.6-7 4.5-0.7 0.3-1.7 0.3zm10.6 0.1q-1.4 0-1.4-0.9 0-0.1 0.2-0.7 4.6-8.8 10.9-25.2 0.7-1.7 2.4-3 1.6-1.4 2.8-1.4 1.3 0 1.1 1.4-1 2-2.4 5.3-1.3 3.2-3.2 7.5 2.7-3.6 8.1-8.1 2.8-2.3 4.7-3.7 2.1-1.5 3.5-2.2 1.3-0.7 3-0.7 2 0 3.3 1 1.4 1 1.4 2.3 0 0.7-0.8 1.7-0.7 0.9-1.5 0.9-0.3 0-1.6-0.8-1.2-0.9-2.6-0.9-1.4 0-3.4 0.9-12.4 5.6-21.5 25.2-0.5 1.4-3 1.4zm51.1-0.1q-2 0-3.7-1.3-1.5-1.3-1.8-2.4-0.3-1.4 3.6-9.8l-2.3 3.2q-1.4 2.1-2.9 3.8-1.5 1.7-2.7 3-3.8 3.5-6.3 2.9-5.9-1.4-5.9-6.7 0-4.2 4-10.8 1.3-1.9 3.3-3.9 1.9-1.9 4.5-3.8 6.5-4.8 12.6-4.8 3.7 0 7.1 2 1 0.7 1 1.6 0 0.7-0.3 0.7-0.1 0-0.2-0.1-2.1-2.2-5.5-2.2-4.1 0-8.8 3-4.7 3-8.4 8.1-5.3 7.4-5.3 12 0 2.6 1.9 3.3 2.3 1 10-8.7 3.1-3.8 5.2-6.9 2.1-3 3.4-5.2 0.6-1 2.2-1 2.9 0 2.9 1.7 0 0.3-0.1 0.4-8.5 13.5-8.5 18.4 0 1.1 0.7 1.2 2 0.6 6.8-3 5.8-4.3 10.9-11.5 1.1-1.4 2-1.4 0.3 0 0.3 0.1 0 0.5-0.9 1.9-2.1 3.2-4.6 6.1-2.5 2.8-5.5 5.3-4.3 3.6-7.1 4.5-0.7 0.3-1.6 0.3zm20.8 0.6q-7.5-1.7-7.5-6.9 0-1.5 0.5-3.4 0.5-2.1 1.5-4.5l8.4-18.7q-1.5 0.1-3.3 0.3-1.7 0.2-3.9 0.4-0.4 0-0.4-0.7 0-1.3 0.5-1.5l8.3-1.2 6.3-12.9q0.9-1.8 5.5-1.8 2.2 0 1.9 0.5-2.2 3.4-4.4 7-2.2 3.4-4.4 6.8 0.3-0.1 1.3-0.2 1-0.1 2.6-0.2 1.1-0.1 2.2-0.1 1.1-0.1 2.1-0.1 4.1 0 3.9 0.4-0.7 0.7-13.3 2.7-10.7 20.2-10.7 28.5 0 3 1.8 3.6 1.3 0.4 6.9-3.6 3.2-2.4 5.9-5.1 2.6-2.9 4.8-6 0.7-1 1.3-1 0.4 0 0.4 0.4 0 0.4-0.5 1.2-3.8 6-9.9 11.3-6 5.2-7.8 4.8zm21.7-0.6q-7.2 0-7.2-8.8 0-8.9 7.1-16.9 0.1-0.1-0.1-0.7-0.2-0.7-0.2-1 0-0.6 0.4-0.8 3.4-2.8 8-2.8 1.3 0 2.1 0.5 1 0.4 1.8 0.8 0.9 0.4 1.7 0.9 3.7 2.2 5.2 4.7 2.5-0.1 4.1-0.2 1.7-0.1 2.6-0.2h0.4q0.8 0 0.8 0.7 0 0.2-0.3 0.3-1.1 0.2-2.9 0.4-1.7 0.3-4.1 0.6 0.3 0.7 0.3 1.6 0 0.7-0.1 1-1.5 7.9-7.8 13.9-6 6-11.8 6zm16.5-24.1q-1.6-2.5-6.2-2.5-3.5 0-4.6 0.8-0.3 0.1-0.6 0.4-0.3 0.3-0.7 0.7 5.5 0.7 12.1 0.6zm-16.2 22.5q4.3 0 9.9-6.2 5.7-6.1 6.7-11.9 0.1-0.5 0.1-0.8 0.1-0.4 0.1-0.7 0-0.6-0.2-1.2-1.8 0.1-3.8 0.1-1.9 0-3.9 0-2 0-3.6 0-1.6 0-2.9-0.1-3.9 5.3-4.9 8.6-1.1 3.6-1.1 6.9 0 5.3 3.6 5.3zm29.3 1.7q-0.6 0.2-4.8-2.6-0.5-0.5-0.5-1.8 0-6.5 5.6-21.6 1.4-3.8 3.7-3.8 1.2 0 2.1 1.1 0.9 0.9 0.6 1.5-1 2.3-2.3 5.2-1.2 2.9-2.6 6.4-3.3 8.5-3.3 11.8 0 1.3 0.9 1.3 0.4 0 0.8-0.3 1.6-0.9 4.6-4.1 3-3.1 7.5-8.3 9.8-11.3 12.7-16.9 1.3-2.5 2.8-2.5 1.3 0 1.3 1.6 0 1.4-1.6 3.3-3.6 4.3-7.8 9.1-4.1 4.7-8.7 9.9-10.3 11.1-11 10.7zm25.2 2.8q-0.4 0-0.4-0.3 0-1.2 6.6-4.7 1.7-0.8 3.1-1.5 1.4-0.9 2.3-1.6 6-4.4 6-7.7 0-2.4-4.8-2.4-11.2-0.2-11.2-4.9 0-2.1 1.8-3.9 2.1-2.4 6.9-4.5 5.2-2.4 9.5-2.4 3.8 0 5.7 1.9 0.9 0.9 0.9 2.1 0 1.4-0.9 2.5-0.8 1.1-1.9 1.1-2 0-2.2-2.7 0-1.9-0.6-2.1-0.5-0.3-3.1-0.3-3.2 0-7.2 2.1-4.8 2.5-4.5 5.9 0.1 2 7.4 2 9.9 0 9.9 4.8 0 5.2-8.5 10.3-5.4 3.4-13.2 5.9-1 0.4-1.6 0.4zm57.4 4.4q-2.6 0-5.1-1.8-7.3-5.8-11.4-21.7-5.9 6.9-11.1 15.6-0.2 0.2-1.1 0.2-4.3 0-3.9-1.2 1.9-5.3 4.5-11.1 2.6-5.8 5.9-12.1 10.7-21.1 16.3-25.2 1.2-0.9 3.3-0.9 3.4 0 3.4 1.4 0 0.3-0.6 0.8-13.8 10.3-23.3 35.8l6-5.8q-0.3-1.4-0.6-2.7-0.2-1.3-0.2-2.4 0-1 0.7-1.7 0.8-0.8 1.7-0.8 0.7 0 1.2 0.8 0.5 0.9 2.6 1.3 3.1-2.9 5.5-4.7 2.5-2 4.4-3 3.5-1.7 5.4-1.7 2.8 0 2.8 3.4 0 2.8-3.4 5.2-3.3 2.3-7.8 3.1-1.6 0.3-3.5 0.3-0.7 0-1.4 0-0.6-0.1-1.4-0.2l-1.2 1.2q0.7 4.6 1.4 8 0.7 3.4 1.4 5.5 2.5 8.5 6.7 11.6 1.5 1.3 3.6 1.3 4 0 5.6-3.3 0.4-1 1-1.1 0.6-0.3 0.6 0.2 0 0.4-0.3 0.9-2.4 4.8-7.7 4.8zm-8.3-31.5l-0.3 0.3q1 0 1.9-0.3 1.7-0.5 3.4-1.4 1.6-0.9 3.3-2 3.3-2.1 3.3-3.2 0-0.3-0.3-0.3-2.1 0-11.3 6.9zm5.3 53.3q-3.8 0-3.8-3.7 0-3.1 2.7-7.3 1.7-2.6 4.2-5.6 2.6-3 6.3-6.3 6.4-6.3 13.7-10.9 1.7-4.1 2.8-7.9 1.3-3.7 2.2-6.9-0.7 1.2-7.6 9.2-8.3 9.8-11.4 9.8-0.4 0-0.6-0.1l-3-1.6q-1.3-0.8-1.6-1.4-0.3-0.8-0.3-1.6 0-2.7 1.6-7.6 1.5-4.9 4.9-11.9 1.4-3.2 3.3-3.2 1.4 0 2.6 2.1l-4.3 8.5q-4.6 9-4.6 12.6 0 2.3 1.6 2.3 3.1 0 11.7-10.7 2.9-3.4 5.2-6.5 2.5-3.3 4.4-6.3 0.7-1 2-1 2.4 0 2.4 1.8 0 0.4-0.3 0.9-0.8 2.7-2.2 6.7-1.3 4-3.1 9.3 3.1-1.8 5-1.8 0.8 0 0.8 0.4 0 1-2.5 1.8-1 0.4-2.1 0.9-1.1 0.5-2.4 1.2-6.9 17-16.6 28.1-5.8 6.7-11 6.7zm2-2.1q1.9 0 4.5-3 8.7-9.8 15.3-25.7-13 9.7-19.4 20.2-2.1 3.4-2.1 6.1 0 2.4 1.7 2.4z"/></svg>