<svg version="1.2" xmlns="http://www.w3.org/2000/svg" viewBox="0 0 626 37" width="626" height="37"><style>.a{fill:#444}.b{fill:#ff9200}</style><path class="a" d="m22.6 26.4q0 2.4-0.9 4.3-0.9 1.9-2.5 3.2-1.5 1.3-3.7 1.9-2.1 0.7-4.5 0.7-1.7 0-3.2-0.3-1.5-0.3-2.6-0.7-1.2-0.4-2-0.9-0.7-0.4-1-0.7-0.3-0.4-0.5-0.8-0.1-0.5-0.1-1.3 0-0.6 0-1 0.1-0.4 0.2-0.6 0.1-0.3 0.3-0.3 0.1-0.1 0.3-0.1 0.4 0 1.1 0.4 0.6 0.4 1.7 1 1.1 0.5 2.5 1 1.5 0.4 3.5 0.4 1.5 0 2.7-0.4 1.2-0.4 2.1-1.1 0.9-0.7 1.4-1.8 0.4-1 0.4-2.4 0-1.4-0.6-2.4-0.7-1.1-1.8-1.8-1.1-0.8-2.5-1.5-1.3-0.6-2.8-1.3-1.4-0.7-2.8-1.5-1.4-0.8-2.4-1.9-1.1-1.1-1.8-2.6-0.7-1.5-0.7-3.6 0-2.1 0.8-3.8 0.8-1.7 2.2-2.8 1.4-1.1 3.3-1.7 1.9-0.6 4.1-0.6 1.1 0 2.3 0.2 1.1 0.2 2.1 0.5 1 0.3 1.8 0.8 0.8 0.4 1.1 0.6 0.2 0.3 0.3 0.4 0.1 0.1 0.1 0.4 0.1 0.2 0.1 0.5 0 0.3 0 0.8 0 0.5 0 0.9 0 0.3-0.1 0.6-0.1 0.2-0.2 0.4-0.2 0.1-0.4 0.1-0.3 0-0.9-0.4-0.6-0.4-1.5-0.8-0.9-0.5-2.1-0.9-1.2-0.3-2.8-0.3-1.4 0-2.4 0.3-1.1 0.4-1.8 1-0.7 0.7-1 1.6-0.4 0.8-0.4 1.8 0 1.4 0.7 2.4 0.7 1.1 1.7 1.9 1.1 0.8 2.5 1.4 1.4 0.7 2.9 1.4 1.4 0.6 2.8 1.4 1.4 0.8 2.5 1.9 1.1 1.1 1.8 2.6 0.7 1.5 0.7 3.5zm-1.5 0q0 2.4-0.8 4.3-0.9 1.9-2.5 3.2-1.6 1.3-3.7 1.9-2.1 0.7-4.6 0.7-1.7 0-3.1-0.3-1.5-0.3-2.7-0.7-1.1-0.4-1.9-0.9-0.7-0.4-1.1-0.7-0.2-0.4-0.4-0.8-0.1-0.5-0.1-1.3 0-0.6 0-1 0.1-0.4 0.2-0.6 0.1-0.3 0.2-0.3 0.2-0.1 0.4-0.1 0.4 0 1 0.4 0.7 0.4 1.8 1 1 0.5 2.5 1 1.5 0.4 3.5 0.4 1.4 0 2.6-0.4 1.3-0.4 2.2-1.1 0.9-0.7 1.3-1.8 0.5-1 0.5-2.4 0-1.4-0.7-2.4-0.6-1.1-1.7-1.8-1.1-0.8-2.5-1.5-1.3-0.6-2.8-1.3-1.4-0.7-2.8-1.5-1.4-0.8-2.5-1.9-1.1-1.1-1.7-2.6-0.7-1.5-0.7-3.6 0-2.1 0.8-3.8 0.8-1.7 2.1-2.8 1.4-1.1 3.3-1.7 2-0.6 4.2-0.6 1.1 0 2.2 0.2 1.2 0.2 2.2 0.5 1 0.3 1.8 0.8 0.8 0.4 1 0.6 0.3 0.3 0.4 0.4 0.1 0.1 0.1 0.4 0.1 0.2 0.1 0.5 0 0.3 0 0.8 0 0.5 0 0.9-0.1 0.3-0.1 0.6-0.1 0.2-0.3 0.4-0.1 0.1-0.3 0.1-0.3 0-0.9-0.4-0.6-0.4-1.5-0.8-0.9-0.5-2.1-0.9-1.3-0.3-2.8-0.3-1.4 0-2.5 0.3-1 0.4-1.7 1-0.7 0.7-1 1.6-0.4 0.8-0.4 1.8 0 1.4 0.7 2.4 0.6 1.1 1.7 1.9 1.1 0.8 2.5 1.4 1.4 0.7 2.9 1.4 1.4 0.6 2.8 1.4 1.4 0.8 2.5 1.9 1.1 1.1 1.8 2.6 0.6 1.5 0.6 3.5zm23.1-23.7l11.5 31.7q0.2 0.6 0.2 0.9 0 0.4-0.2 0.6-0.2 0.2-0.7 0.2-0.5 0.1-1.3 0.1-0.8 0-1.3-0.1-0.5 0-0.8-0.1-0.2-0.1-0.3-0.3-0.1-0.1-0.2-0.4l-3-8.3h-14.2l-2.8 8.2q0 0.3-0.2 0.5-0.1 0.1-0.4 0.2-0.2 0.2-0.7 0.2-0.4 0.1-1.2 0.1-0.7 0-1.2-0.1-0.5-0.1-0.7-0.3-0.2-0.1-0.2-0.5 0-0.4 0.2-0.9l11.5-31.7q0.1-0.3 0.3-0.5 0.1-0.2 0.5-0.3 0.3-0.1 0.8-0.1 0.5-0.1 1.3-0.1 0.9 0 1.4 0.1 0.6 0 0.9 0.1 0.4 0.1 0.5 0.3 0.2 0.2 0.3 0.5zm2.7 20.7l-5.9-17-5.9 17zm-4.2-20.7l11.5 31.7q0.2 0.6 0.2 0.9 0 0.4-0.2 0.6-0.2 0.2-0.7 0.2-0.5 0.1-1.3 0.1-0.8 0-1.3-0.1-0.5 0-0.8-0.1-0.2-0.1-0.3-0.3-0.1-0.1-0.2-0.4l-3-8.3h-14.1l-2.8 8.2q-0.1 0.3-0.3 0.5-0.1 0.1-0.3 0.2-0.3 0.2-0.8 0.2-0.4 0.1-1.1 0.1-0.8 0-1.3-0.1-0.5-0.1-0.7-0.3-0.2-0.1-0.2-0.5 0-0.4 0.3-0.9l11.4-31.7q0.1-0.3 0.3-0.5 0.1-0.2 0.5-0.3 0.3-0.1 0.8-0.1 0.5-0.1 1.3-0.1 0.9 0 1.4 0.1 0.6 0 0.9 0.1 0.4 0.1 0.5 0.3 0.2 0.2 0.3 0.5zm2.8 20.7l-6-17-5.9 17zm40 11.9q0 0.2 0 0.4-0.1 0.1-0.4 0.2-0.2 0.2-0.7 0.2-0.5 0.1-1.3 0.1-0.7 0-1.1-0.1-0.4 0-0.7-0.2-0.3-0.1-0.4-0.3-0.2-0.2-0.3-0.5l-3.1-8.1q-0.5-1.3-1.2-2.5-0.5-1.1-1.4-1.9-0.8-0.9-1.9-1.3-1.1-0.5-2.6-0.5h-3.1v14.5q0 0.2-0.1 0.4-0.1 0.1-0.4 0.2-0.2 0.1-0.7 0.2-0.4 0.1-1 0.1-0.7 0-1.1-0.1-0.5-0.1-0.7-0.2-0.3-0.1-0.4-0.2-0.1-0.2-0.1-0.4v-31.6q0-1 0.5-1.4 0.6-0.4 1.2-0.4h7.2q1.3 0 2.2 0.1 0.8 0 1.5 0.1 2 0.3 3.5 1.1 1.5 0.7 2.6 1.8 1 1.2 1.5 2.7 0.5 1.4 0.5 3.2 0 1.7-0.5 3.1-0.4 1.3-1.3 2.4-0.8 1-2.1 1.7-1.2 0.8-2.7 1.3 0.9 0.4 1.6 1 0.6 0.5 1.2 1.3 0.6 0.8 1.2 1.9 0.5 1 1 2.3l3.1 7.5q0.3 0.9 0.4 1.3 0.1 0.4 0.1 0.6zm-6.8-24q0-2-0.9-3.3-0.9-1.4-3-2-0.6-0.2-1.5-0.3-0.8-0.1-2.1-0.1h-3.9v11.5h4.5q1.8 0 3-0.4 1.4-0.4 2.2-1.2 0.9-0.8 1.3-1.9 0.4-1 0.4-2.3zm5.4 24q0 0.2-0.1 0.4 0 0.1-0.3 0.2-0.3 0.2-0.7 0.2-0.5 0.1-1.3 0.1-0.7 0-1.1-0.1-0.5 0-0.7-0.2-0.3-0.1-0.4-0.3-0.2-0.2-0.3-0.5l-3.1-8.1q-0.6-1.3-1.2-2.5-0.6-1.1-1.4-1.9-0.8-0.9-1.9-1.3-1.1-0.5-2.7-0.5h-3v14.5q0 0.2-0.1 0.4-0.1 0.1-0.4 0.2-0.2 0.1-0.7 0.2-0.4 0.1-1.1 0.1-0.6 0-1.1-0.1-0.4-0.1-0.7-0.2-0.2-0.1-0.3-0.2-0.1-0.2-0.1-0.4v-31.6q0-1 0.5-1.4 0.6-0.4 1.2-0.4h7.2q1.3 0 2.1 0.1 0.9 0 1.6 0.1 2 0.3 3.5 1.1 1.5 0.7 2.5 1.8 1.1 1.2 1.6 2.7 0.5 1.4 0.5 3.2 0 1.7-0.5 3.1-0.4 1.3-1.3 2.4-0.9 1-2.1 1.7-1.2 0.8-2.7 1.3 0.8 0.4 1.5 1 0.7 0.5 1.3 1.3 0.6 0.8 1.1 1.9 0.6 1 1.1 2.3l3 7.5q0.4 0.9 0.5 1.3 0.1 0.4 0.1 0.6zm-6.8-24q0-2-0.9-3.3-0.9-1.4-3-2-0.7-0.2-1.5-0.3-0.8-0.1-2.2-0.1h-3.8v11.5h4.4q1.8 0 3.1-0.4 1.3-0.4 2.2-1.2 0.9-0.8 1.3-1.9 0.4-1 0.4-2.3zm30.4-8.6l11.4 31.7q0.2 0.6 0.2 0.9 0.1 0.4-0.2 0.6-0.2 0.2-0.7 0.2-0.4 0.1-1.3 0.1-0.8 0-1.3-0.1-0.4 0-0.7-0.1-0.2-0.1-0.4-0.3-0.1-0.1-0.2-0.4l-2.9-8.3h-14.2l-2.8 8.2q-0.1 0.3-0.2 0.5-0.1 0.1-0.4 0.2-0.2 0.2-0.7 0.2-0.5 0.1-1.2 0.1-0.8 0-1.3-0.1-0.4-0.1-0.7-0.3-0.1-0.1-0.1-0.5 0-0.4 0.2-0.9l11.4-31.7q0.1-0.3 0.3-0.5 0.2-0.2 0.5-0.3 0.3-0.1 0.8-0.1 0.6-0.1 1.4-0.1 0.8 0 1.4 0.1 0.5 0 0.9 0.1 0.3 0.1 0.5 0.3 0.2 0.2 0.3 0.5zm2.7 20.7l-6-17-5.9 17zm-4.1-20.7l11.4 31.7q0.2 0.6 0.2 0.9 0.1 0.4-0.1 0.6-0.3 0.2-0.8 0.2-0.4 0.1-1.2 0.1-0.9 0-1.4-0.1-0.4 0-0.7-0.1-0.2-0.1-0.4-0.3-0.1-0.1-0.2-0.4l-2.9-8.3h-14.2l-2.8 8.2q-0.1 0.3-0.2 0.5-0.1 0.1-0.4 0.2-0.2 0.2-0.7 0.2-0.5 0.1-1.2 0.1-0.8 0-1.3-0.1-0.4-0.1-0.6-0.3-0.2-0.1-0.2-0.5 0-0.4 0.2-0.9l11.5-31.7q0.1-0.3 0.2-0.5 0.2-0.2 0.5-0.3 0.4-0.1 0.9-0.1 0.5-0.1 1.3-0.1 0.8 0 1.4 0.1 0.5 0 0.9 0.1 0.3 0.1 0.5 0.3 0.2 0.2 0.3 0.5zm2.7 20.7l-6-17-5.9 17zm34.5-19.6q0 0.5 0 0.9-0.1 0.4-0.2 0.6-0.1 0.2-0.3 0.3-0.2 0.1-0.4 0.1h-9.6v29.6q0 0.2-0.1 0.4-0.1 0.1-0.4 0.2-0.2 0.1-0.7 0.2-0.4 0.1-1.1 0.1-0.6 0-1-0.1-0.5-0.1-0.7-0.2-0.3-0.1-0.4-0.2-0.1-0.2-0.1-0.4v-29.6h-9.6q-0.2 0-0.4-0.1-0.2-0.1-0.3-0.3-0.1-0.2-0.2-0.6 0-0.4 0-0.9 0-0.5 0-0.8 0.1-0.4 0.2-0.7 0.1-0.2 0.3-0.3 0.2-0.1 0.4-0.1h23.7q0.2 0 0.4 0.1 0.2 0.1 0.3 0.3 0.1 0.3 0.2 0.7 0 0.3 0 0.8zm-1.4 0q0 0.5-0.1 0.9 0 0.4-0.2 0.6-0.1 0.2-0.2 0.3-0.2 0.1-0.4 0.1h-9.6v29.6q0 0.2-0.1 0.4-0.1 0.1-0.4 0.2-0.2 0.1-0.7 0.2-0.4 0.1-1.1 0.1-0.6 0-1.1-0.1-0.4-0.1-0.7-0.2-0.2-0.1-0.3-0.2-0.1-0.2-0.1-0.4v-29.6h-9.6q-0.3 0-0.4-0.1-0.2-0.1-0.3-0.3-0.1-0.2-0.2-0.6 0-0.4 0-0.9 0-0.5 0-0.8 0.1-0.4 0.2-0.7 0.1-0.2 0.3-0.3 0.1-0.1 0.4-0.1h23.7q0.2 0 0.4 0.1 0.1 0.1 0.2 0.3 0.2 0.3 0.2 0.7 0.1 0.3 0.1 0.8zm34.9 14.7q0 4.2-1 7.5-1 3.3-3 5.7-1.9 2.3-4.8 3.6-2.9 1.2-6.8 1.2-3.9 0-6.7-1.1-2.8-1.2-4.6-3.4-1.9-2.2-2.8-5.4-0.9-3.3-0.9-7.5 0-4 1-7.3 1-3.3 2.9-5.6 2-2.3 4.9-3.6 3-1.2 6.9-1.2 3.7 0 6.5 1.1 2.8 1.1 4.7 3.3 1.8 2.2 2.7 5.4 1 3.2 1 7.3zm-4.8 0.4q0-2.9-0.5-5.4-0.5-2.5-1.8-4.3-1.1-1.9-3.2-2.9-2-1-4.9-1-3 0-5 1.1-2 1.1-3.2 2.9-1.3 1.9-1.8 4.3-0.6 2.5-0.6 5.2 0 3 0.5 5.5 0.5 2.6 1.7 4.4 1.2 1.8 3.2 2.9 2 1 5 1 3 0 5-1.1 2-1.1 3.3-3 1.2-1.9 1.8-4.4 0.5-2.5 0.5-5.2zm3.3-0.4q0 4.2-0.9 7.5-1 3.3-3 5.7-1.9 2.3-4.8 3.6-3 1.2-6.9 1.2-3.8 0-6.6-1.1-2.8-1.2-4.7-3.4-1.8-2.2-2.7-5.4-0.9-3.3-0.9-7.5 0-4 1-7.3 1-3.3 2.9-5.6 2-2.3 4.9-3.6 2.9-1.2 6.8-1.2 3.8 0 6.6 1.1 2.8 1.1 4.6 3.3 1.9 2.2 2.8 5.4 0.9 3.2 0.9 7.3zm-4.7 0.4q0-2.9-0.6-5.4-0.5-2.5-1.7-4.3-1.2-1.9-3.2-2.9-2-1-4.9-1-3 0-5 1.1-2 1.1-3.3 2.9-1.2 1.9-1.8 4.3-0.5 2.5-0.5 5.2 0 3 0.5 5.5 0.5 2.6 1.7 4.4 1.2 1.8 3.2 2.9 2 1 5 1 3 0 5-1.1 2-1.1 3.3-3 1.2-1.9 1.7-4.4 0.6-2.5 0.6-5.2zm39-15.4l-11.1 31.7q-0.1 0.3-0.3 0.5-0.2 0.2-0.5 0.3-0.3 0.1-0.8 0.1-0.6 0.1-1.3 0.1-0.6 0-1 0-0.5-0.1-0.8-0.1-0.3-0.1-0.5-0.1-0.2-0.1-0.4-0.2-0.2-0.1-0.3-0.2 0-0.2-0.1-0.4l-11.2-31.7q-0.2-0.6-0.2-0.9 0-0.4 0.2-0.6 0.3-0.2 0.8-0.2 0.5-0.1 1.4-0.1 0.7 0 1.2 0.1 0.4 0 0.7 0.1 0.2 0.1 0.3 0.3 0.1 0.2 0.2 0.4l9.8 28.7 9.6-28.6q0-0.3 0.1-0.5 0.2-0.2 0.4-0.3 0.3-0.1 0.8-0.1 0.4-0.1 1.2-0.1 0.8 0 1.3 0.1 0.5 0.1 0.6 0.2 0.2 0.2 0.2 0.6-0.1 0.3-0.3 0.9zm-1.4 0l-11.1 31.7q-0.1 0.3-0.3 0.5-0.2 0.2-0.5 0.3-0.3 0.1-0.9 0.1-0.5 0.1-1.2 0.1-0.6 0-1.1 0-0.4-0.1-0.7-0.1-0.3-0.1-0.6-0.1-0.2-0.1-0.3-0.2-0.2-0.1-0.3-0.2-0.1-0.2-0.2-0.4l-11.1-31.7q-0.2-0.6-0.2-0.9 0-0.4 0.2-0.6 0.2-0.2 0.8-0.2 0.5-0.1 1.4-0.1 0.7 0 1.1 0.1 0.5 0 0.7 0.1 0.3 0.1 0.4 0.3 0.1 0.2 0.2 0.4l9.8 28.7 9.5-28.6q0.1-0.3 0.2-0.5 0.1-0.2 0.4-0.3 0.3-0.1 0.7-0.1 0.5-0.1 1.3-0.1 0.8 0 1.3 0.1 0.5 0.1 0.6 0.2 0.2 0.2 0.2 0.6-0.1 0.3-0.3 0.9zm26.6 22.9q0 2.4-0.9 4.3-0.8 1.9-2.4 3.2-1.6 1.3-3.7 1.9-2.1 0.7-4.6 0.7-1.7 0-3.2-0.3-1.4-0.3-2.6-0.7-1.1-0.4-1.9-0.9-0.8-0.4-1.1-0.7-0.3-0.4-0.4-0.8-0.2-0.5-0.2-1.3 0-0.6 0.1-1 0-0.4 0.1-0.6 0.2-0.3 0.3-0.3 0.2-0.1 0.4-0.1 0.4 0 1 0.4 0.7 0.4 1.8 1 1 0.5 2.5 1 1.5 0.4 3.4 0.4 1.5 0 2.7-0.4 1.3-0.4 2.1-1.1 0.9-0.7 1.4-1.8 0.5-1 0.5-2.4 0-1.4-0.7-2.4-0.6-1.1-1.7-1.8-1.1-0.8-2.5-1.5-1.4-0.6-2.8-1.3-1.5-0.7-2.8-1.5-1.4-0.8-2.5-1.9-1.1-1.1-1.8-2.6-0.6-1.5-0.6-3.6 0-2.1 0.7-3.8 0.8-1.7 2.2-2.8 1.4-1.1 3.3-1.7 1.9-0.6 4.1-0.6 1.2 0 2.3 0.2 1.2 0.2 2.2 0.5 1 0.3 1.8 0.8 0.8 0.4 1 0.6 0.3 0.3 0.4 0.4 0 0.1 0.1 0.4 0 0.2 0.1 0.5 0 0.3 0 0.8 0 0.5-0.1 0.9 0 0.3-0.1 0.6 0 0.2-0.2 0.4-0.1 0.1-0.3 0.1-0.3 0-0.9-0.4-0.6-0.4-1.5-0.8-0.9-0.5-2.2-0.9-1.2-0.3-2.7-0.3-1.4 0-2.5 0.3-1 0.4-1.7 1-0.7 0.7-1.1 1.6-0.3 0.8-0.3 1.8 0 1.4 0.7 2.4 0.6 1.1 1.7 1.9 1.1 0.8 2.5 1.4 1.4 0.7 2.8 1.4 1.5 0.6 2.9 1.4 1.4 0.8 2.5 1.9 1.1 1.1 1.7 2.6 0.7 1.5 0.7 3.5zm-1.4 0q0 2.4-0.9 4.3-0.9 1.9-2.4 3.2-1.6 1.3-3.7 1.9-2.1 0.7-4.6 0.7-1.7 0-3.2-0.3-1.4-0.3-2.6-0.7-1.1-0.4-1.9-0.9-0.8-0.4-1.1-0.7-0.3-0.4-0.5-0.8-0.1-0.5-0.1-1.3 0-0.6 0.1-1 0-0.4 0.1-0.6 0.1-0.3 0.3-0.3 0.1-0.1 0.4-0.1 0.3 0 1 0.4 0.7 0.4 1.7 1 1.1 0.5 2.6 1 1.5 0.4 3.4 0.4 1.5 0 2.7-0.4 1.2-0.4 2.1-1.1 0.9-0.7 1.4-1.8 0.5-1 0.5-2.4 0-1.4-0.7-2.4-0.7-1.1-1.7-1.8-1.1-0.8-2.5-1.5-1.4-0.6-2.8-1.3-1.5-0.7-2.9-1.5-1.3-0.8-2.4-1.9-1.1-1.1-1.8-2.6-0.6-1.5-0.6-3.6 0-2.1 0.7-3.8 0.8-1.7 2.2-2.8 1.4-1.1 3.3-1.7 1.9-0.6 4.1-0.6 1.2 0 2.3 0.2 1.1 0.2 2.2 0.5 1 0.3 1.8 0.8 0.8 0.4 1 0.6 0.3 0.3 0.3 0.4 0.1 0.1 0.2 0.4 0 0.2 0.1 0.5 0 0.3 0 0.8 0 0.5-0.1 0.9 0 0.3-0.1 0.6-0.1 0.2-0.2 0.4-0.1 0.1-0.3 0.1-0.3 0-1-0.4-0.6-0.4-1.5-0.8-0.9-0.5-2.1-0.9-1.2-0.3-2.7-0.3-1.5 0-2.5 0.3-1.1 0.4-1.8 1-0.6 0.7-1 1.6-0.3 0.8-0.3 1.8 0 1.4 0.6 2.4 0.7 1.1 1.8 1.9 1.1 0.8 2.5 1.4 1.4 0.7 2.8 1.4 1.5 0.6 2.9 1.4 1.4 0.8 2.5 1.9 1.1 1.1 1.7 2.6 0.7 1.5 0.7 3.5zm31.6 8.9q0 0.2-0.1 0.4-0.1 0.1-0.3 0.2-0.3 0.1-0.7 0.2-0.5 0.1-1.2 0.1-0.9 0-1.5-0.1-0.6-0.1-0.9-0.3-0.3-0.2-0.4-0.5l-12.6-17v17q0 0.2-0.1 0.4-0.1 0.1-0.4 0.2-0.2 0.1-0.7 0.2-0.4 0.1-1.1 0.1-0.6 0-1-0.1-0.5-0.1-0.8-0.2-0.2-0.1-0.3-0.2-0.1-0.2-0.1-0.4v-32.7q0-0.2 0.1-0.4 0.1-0.2 0.3-0.2 0.3-0.1 0.8-0.2 0.4-0.1 1-0.1 0.7 0 1.1 0.1 0.5 0.1 0.7 0.2 0.3 0 0.4 0.2 0.1 0.2 0.1 0.4v15.1l12.1-15.1q0.1-0.3 0.4-0.4 0.2-0.2 0.5-0.3 0.3-0.1 0.7-0.1 0.4-0.1 1.1-0.1 0.7 0 1.1 0.1 0.5 0.1 0.7 0.2 0.3 0.1 0.3 0.2 0.1 0.2 0.1 0.4 0 0.3-0.1 0.7-0.2 0.3-0.7 0.9l-11.3 13.5 12.2 16.2q0.4 0.7 0.5 1 0.1 0.2 0.1 0.4zm-1.4 0q0 0.2-0.1 0.4-0.1 0.1-0.3 0.2-0.3 0.1-0.8 0.2-0.4 0.1-1.1 0.1-0.9 0-1.5-0.1-0.6-0.1-0.9-0.3-0.3-0.2-0.5-0.5l-12.5-17v17q0 0.2-0.1 0.4-0.1 0.1-0.4 0.2-0.3 0.1-0.7 0.2-0.4 0.1-1.1 0.1-0.6 0-1.1-0.1-0.4-0.1-0.7-0.2-0.2-0.1-0.3-0.2-0.2-0.2-0.2-0.4v-32.7q0-0.2 0.2-0.4 0.1-0.2 0.3-0.2 0.3-0.1 0.7-0.2 0.5-0.1 1.1-0.1 0.7 0 1.1 0.1 0.4 0.1 0.7 0.2 0.3 0 0.4 0.2 0.1 0.2 0.1 0.4v15.1l12.1-15.1q0.1-0.3 0.3-0.4 0.2-0.2 0.5-0.3 0.3-0.1 0.8-0.1 0.4-0.1 1.1-0.1 0.7 0 1.1 0.1 0.4 0.1 0.7 0.2 0.2 0.1 0.3 0.2 0.1 0.2 0.1 0.4 0 0.3-0.2 0.7-0.1 0.3-0.6 0.9l-11.3 13.5 12.2 16.2q0.4 0.7 0.5 1 0.1 0.2 0.1 0.4zm29.2-31.8l-9.6 19.2v12.6q0 0.2-0.1 0.4-0.1 0.1-0.4 0.2-0.3 0.1-0.7 0.2-0.5 0.1-1.1 0.1-0.7 0-1.1-0.1-0.4-0.1-0.7-0.2-0.3-0.1-0.4-0.2-0.1-0.2-0.1-0.4v-12.6l-9.6-19.2q-0.3-0.6-0.4-1-0.1-0.3 0.1-0.5 0.2-0.2 0.7-0.2 0.6-0.1 1.4-0.1 0.8 0 1.3 0.1 0.5 0 0.8 0.1 0.3 0.1 0.4 0.3 0.2 0.2 0.3 0.4l4.7 9.8q0.7 1.4 1.3 3 0.7 1.5 1.4 3 0.6-1.5 1.3-2.9 0.6-1.5 1.3-3l4.7-9.9q0.1-0.2 0.3-0.4 0.1-0.2 0.3-0.3 0.3-0.1 0.8-0.1 0.4-0.1 1.1-0.1 0.9 0 1.5 0.1 0.5 0.1 0.7 0.2 0.2 0.2 0.2 0.6-0.1 0.3-0.4 0.9zm-1.4 0l-9.6 19.2v12.6q0 0.2-0.2 0.4-0.1 0.1-0.3 0.2-0.3 0.1-0.7 0.2-0.5 0.1-1.1 0.1-0.7 0-1.1-0.1-0.4-0.1-0.7-0.2-0.3-0.1-0.4-0.2-0.1-0.2-0.1-0.4v-12.6l-9.7-19.2q-0.3-0.6-0.3-1-0.1-0.3 0.1-0.5 0.2-0.2 0.7-0.2 0.5-0.1 1.4-0.1 0.8 0 1.3 0.1 0.5 0 0.8 0.1 0.3 0.1 0.4 0.3 0.1 0.2 0.3 0.4l4.7 9.8q0.7 1.4 1.3 3 0.7 1.5 1.4 3 0.6-1.5 1.3-2.9 0.6-1.5 1.3-3l4.7-9.9q0.1-0.2 0.2-0.4 0.2-0.2 0.4-0.3 0.3-0.1 0.7-0.1 0.5-0.1 1.2-0.1 0.9 0 1.4 0.1 0.6 0.1 0.8 0.2 0.2 0.2 0.1 0.6 0 0.3-0.3 0.9z"/><path class="a" d="m475.6 26.4q0 2.4-0.9 4.3-0.9 1.9-2.5 3.2-1.5 1.3-3.7 1.9-2.1 0.7-4.5 0.7-1.7 0-3.2-0.3-1.5-0.3-2.6-0.7-1.2-0.4-2-0.9-0.7-0.4-1-0.7-0.3-0.4-0.5-0.8-0.1-0.5-0.1-1.3 0-0.6 0-1 0.1-0.4 0.2-0.6 0.1-0.3 0.3-0.3 0.1-0.1 0.3-0.1 0.4 0 1.1 0.4 0.6 0.4 1.7 1 1.1 0.5 2.5 1 1.5 0.4 3.5 0.4 1.5 0 2.7-0.4 1.2-0.4 2.1-1.1 0.9-0.7 1.4-1.8 0.4-1 0.4-2.4 0-1.4-0.6-2.4-0.7-1.1-1.8-1.8-1.1-0.8-2.5-1.5-1.3-0.6-2.8-1.3-1.4-0.7-2.8-1.5-1.4-0.8-2.4-1.9-1.1-1.1-1.8-2.6-0.7-1.5-0.7-3.6 0-2.1 0.8-3.8 0.8-1.7 2.2-2.8 1.4-1.1 3.3-1.7 1.9-0.6 4.1-0.6 1.1 0 2.3 0.2 1.1 0.2 2.1 0.5 1 0.3 1.8 0.8 0.8 0.4 1.1 0.6 0.2 0.3 0.3 0.4 0.1 0.1 0.1 0.4 0.1 0.2 0.1 0.5 0 0.3 0 0.8 0 0.5 0 0.9 0 0.3-0.1 0.6-0.1 0.2-0.2 0.4-0.2 0.1-0.4 0.1-0.3 0-0.9-0.4-0.6-0.4-1.5-0.8-0.9-0.5-2.1-0.9-1.2-0.3-2.8-0.3-1.4 0-2.4 0.3-1.1 0.4-1.8 1-0.7 0.7-1 1.6-0.4 0.8-0.4 1.8 0 1.4 0.7 2.4 0.7 1.1 1.7 1.9 1.1 0.8 2.5 1.4 1.4 0.7 2.9 1.4 1.4 0.6 2.8 1.4 1.4 0.8 2.5 1.9 1.1 1.1 1.8 2.6 0.7 1.5 0.7 3.5zm-1.5 0q0 2.4-0.8 4.3-0.9 1.9-2.5 3.2-1.6 1.3-3.7 1.9-2.1 0.7-4.6 0.7-1.7 0-3.1-0.3-1.5-0.3-2.7-0.7-1.1-0.4-1.9-0.9-0.7-0.4-1.1-0.7-0.2-0.4-0.4-0.8-0.1-0.5-0.1-1.3 0-0.6 0-1 0.1-0.4 0.2-0.6 0.1-0.3 0.2-0.3 0.2-0.1 0.4-0.1 0.4 0 1 0.4 0.7 0.4 1.8 1 1 0.5 2.5 1 1.5 0.4 3.5 0.4 1.4 0 2.6-0.4 1.3-0.4 2.2-1.1 0.9-0.7 1.3-1.8 0.5-1 0.5-2.4 0-1.4-0.7-2.4-0.6-1.1-1.7-1.8-1.1-0.8-2.5-1.5-1.3-0.6-2.8-1.3-1.4-0.7-2.8-1.5-1.4-0.8-2.5-1.9-1.1-1.1-1.7-2.6-0.7-1.5-0.7-3.6 0-2.1 0.8-3.8 0.8-1.7 2.1-2.8 1.4-1.1 3.3-1.7 2-0.6 4.2-0.6 1.1 0 2.2 0.2 1.2 0.2 2.2 0.5 1 0.3 1.8 0.8 0.8 0.4 1 0.6 0.3 0.3 0.4 0.4 0.1 0.1 0.1 0.4 0.1 0.2 0.1 0.5 0 0.3 0 0.8 0 0.5 0 0.9-0.1 0.3-0.1 0.6-0.1 0.2-0.3 0.4-0.1 0.1-0.3 0.1-0.3 0-0.9-0.4-0.6-0.4-1.5-0.8-0.9-0.5-2.1-0.9-1.3-0.3-2.8-0.3-1.4 0-2.5 0.3-1 0.4-1.7 1-0.7 0.7-1 1.6-0.4 0.8-0.4 1.8 0 1.4 0.7 2.4 0.6 1.1 1.7 1.9 1.1 0.8 2.5 1.4 1.4 0.7 2.9 1.4 1.4 0.6 2.8 1.4 1.4 0.8 2.5 1.9 1.1 1.1 1.8 2.6 0.6 1.5 0.6 3.5zm30.4-22.6q0 0.5 0 0.9-0.1 0.4-0.2 0.6-0.1 0.2-0.3 0.3-0.2 0.1-0.4 0.1h-9.6v29.6q0 0.2-0.1 0.4-0.1 0.1-0.3 0.2-0.3 0.1-0.7 0.2-0.5 0.1-1.1 0.1-0.7 0-1.1-0.1-0.5-0.1-0.7-0.2-0.3-0.1-0.4-0.2-0.1-0.2-0.1-0.4v-29.6h-9.6q-0.2 0-0.4-0.1-0.1-0.1-0.3-0.3-0.1-0.2-0.1-0.6-0.1-0.4-0.1-0.9 0-0.5 0.1-0.8 0-0.4 0.1-0.7 0.2-0.2 0.3-0.3 0.2-0.1 0.4-0.1h23.7q0.2 0 0.4 0.1 0.2 0.1 0.3 0.3 0.1 0.3 0.2 0.7 0 0.3 0 0.8zm-1.4 0q0 0.5 0 0.9-0.1 0.4-0.2 0.6-0.1 0.2-0.3 0.3-0.2 0.1-0.4 0.1h-9.6v29.6q0 0.2-0.1 0.4-0.1 0.1-0.4 0.2-0.2 0.1-0.7 0.2-0.4 0.1-1.1 0.1-0.6 0-1-0.1-0.5-0.1-0.7-0.2-0.3-0.1-0.4-0.2-0.1-0.2-0.1-0.4v-29.6h-9.6q-0.2 0-0.4-0.1-0.2-0.1-0.3-0.3-0.1-0.2-0.2-0.6 0-0.4 0-0.9 0-0.5 0-0.8 0.1-0.4 0.2-0.7 0.1-0.2 0.3-0.3 0.2-0.1 0.4-0.1h23.7q0.2 0 0.4 0.1 0.2 0.1 0.3 0.3 0.1 0.3 0.2 0.7 0 0.3 0 0.8zm33.5-1.2v20.8q0 3.1-0.9 5.6-0.9 2.4-2.6 4.1-1.7 1.7-4.1 2.5-2.5 0.9-5.6 0.9-2.8 0-5.1-0.8-2.3-0.8-4-2.4-1.6-1.6-2.5-4-0.9-2.4-0.9-5.6v-21.1q0-0.2 0.1-0.4 0.1-0.2 0.3-0.2 0.3-0.1 0.7-0.2 0.4-0.1 1.1-0.1 0.7 0 1.1 0.1 0.5 0.1 0.7 0.2 0.3 0 0.4 0.2 0.1 0.2 0.1 0.4v20.6q0 2.4 0.6 4.1 0.5 1.8 1.6 3 1.1 1.1 2.7 1.7 1.5 0.6 3.4 0.6 2 0 3.5-0.6 1.6-0.5 2.7-1.7 1-1.2 1.6-2.9 0.6-1.7 0.6-4v-20.8q0-0.2 0.1-0.4 0.1-0.2 0.3-0.2 0.3-0.1 0.7-0.2 0.5-0.1 1.1-0.1 0.7 0 1.1 0.1 0.4 0.1 0.7 0.2 0.2 0 0.3 0.2 0.2 0.2 0.2 0.4zm-1.4 0v20.8q0 3.1-1 5.6-0.9 2.4-2.6 4.1-1.6 1.7-4.1 2.5-2.4 0.9-5.5 0.9-2.8 0-5.1-0.8-2.3-0.8-4-2.4-1.7-1.6-2.6-4-0.9-2.4-0.9-5.6v-21.1q0-0.2 0.1-0.4 0.2-0.2 0.4-0.2 0.3-0.1 0.7-0.2 0.4-0.1 1.1-0.1 0.6 0 1.1 0.1 0.4 0.1 0.7 0.2 0.2 0 0.3 0.2 0.2 0.2 0.2 0.4v20.6q0 2.4 0.5 4.1 0.6 1.8 1.7 3 1.1 1.1 2.6 1.7 1.6 0.6 3.5 0.6 2 0 3.5-0.6 1.6-0.5 2.6-1.7 1.1-1.2 1.7-2.9 0.5-1.7 0.5-4v-20.8q0-0.2 0.1-0.4 0.2-0.2 0.4-0.2 0.3-0.1 0.7-0.2 0.5-0.1 1.1-0.1 0.6 0 1.1 0.1 0.4 0.1 0.7 0.2 0.2 0 0.3 0.2 0.2 0.2 0.2 0.4zm38.1 15.8q0 4.5-1.2 7.8-1.1 3.3-3.3 5.5-2.2 2.1-5.3 3.2-3.2 1.1-7.6 1.1h-7.2q-0.6 0-1.1-0.4-0.6-0.4-0.6-1.4v-30.5q0-1 0.6-1.4 0.5-0.4 1.1-0.4h7.7q4.5 0 7.5 1.1 3.1 1.2 5.1 3.3 2.1 2.2 3.2 5.2 1.1 3.1 1.1 6.9zm-4.8 0.2q0-2.7-0.7-5.1-0.7-2.4-2.2-4.2-1.4-1.7-3.7-2.7-2.2-0.9-5.7-0.9h-4.6v26.5h4.6q3.3 0 5.5-0.8 2.3-0.8 3.8-2.5 1.5-1.7 2.2-4.2 0.8-2.6 0.8-6.1zm3.3-0.2q0 4.5-1.1 7.8-1.1 3.3-3.3 5.5-2.2 2.1-5.3 3.2-3.2 1.1-7.6 1.1h-7.2q-0.6 0-1.2-0.4-0.5-0.4-0.5-1.4v-30.5q0-1 0.5-1.4 0.6-0.4 1.2-0.4h7.7q4.4 0 7.5 1.1 3.1 1.2 5.1 3.3 2.1 2.2 3.2 5.2 1 3.1 1 6.9zm-4.7 0.2q0-2.7-0.7-5.1-0.7-2.4-2.2-4.2-1.4-1.7-3.7-2.7-2.2-0.9-5.8-0.9h-4.6v26.5h4.7q3.3 0 5.5-0.8 2.3-0.8 3.8-2.5 1.5-1.7 2.2-4.2 0.8-2.6 0.8-6.1zm19.1-16v32.7q0 0.2-0.1 0.4-0.1 0.1-0.3 0.2-0.3 0.1-0.7 0.2-0.5 0.1-1.1 0.1-0.7 0-1.1-0.1-0.5-0.1-0.7-0.2-0.3-0.1-0.4-0.2-0.1-0.2-0.1-0.4v-32.7q0-0.2 0.1-0.4 0.1-0.2 0.4-0.2 0.3-0.1 0.7-0.2 0.5-0.1 1.1-0.1 0.6 0 1.1 0.1 0.4 0.1 0.7 0.2 0.2 0 0.3 0.2 0.1 0.2 0.1 0.4zm-1.4 0v32.7q0 0.2-0.1 0.4-0.1 0.1-0.4 0.2-0.2 0.1-0.7 0.2-0.4 0.1-1.1 0.1-0.6 0-1-0.1-0.5-0.1-0.7-0.2-0.3-0.1-0.4-0.2-0.1-0.2-0.1-0.4v-32.7q0-0.2 0.1-0.4 0.1-0.2 0.4-0.2 0.3-0.1 0.7-0.2 0.4-0.1 1-0.1 0.7 0 1.1 0.1 0.5 0.1 0.7 0.2 0.3 0 0.4 0.2 0.1 0.2 0.1 0.4zm40.6 15.9q0 4.2-1 7.5-1 3.3-3 5.7-1.9 2.3-4.8 3.6-2.9 1.2-6.8 1.2-3.9 0-6.7-1.1-2.8-1.2-4.6-3.4-1.9-2.2-2.8-5.4-0.9-3.3-0.9-7.5 0-4 1-7.3 1-3.3 2.9-5.6 2-2.3 4.9-3.6 3-1.2 6.9-1.2 3.7 0 6.5 1.1 2.8 1.1 4.7 3.3 1.8 2.2 2.7 5.4 1 3.2 1 7.3zm-4.8 0.4q0-2.9-0.5-5.4-0.6-2.5-1.8-4.3-1.1-1.9-3.2-2.9-2-1-4.9-1-3 0-5 1.1-2 1.1-3.2 2.9-1.3 1.9-1.8 4.3-0.6 2.5-0.6 5.2 0 3 0.5 5.5 0.5 2.6 1.7 4.4 1.2 1.8 3.2 2.9 2 1 5 1 3 0 5-1.1 2-1.1 3.3-3 1.2-1.9 1.8-4.4 0.5-2.5 0.5-5.2zm3.3-0.4q0 4.2-0.9 7.5-1 3.3-3 5.7-1.9 2.3-4.8 3.6-3 1.2-6.9 1.2-3.8 0-6.6-1.1-2.8-1.2-4.7-3.4-1.8-2.2-2.7-5.4-0.9-3.3-0.9-7.5 0-4 1-7.3 1-3.3 2.9-5.6 2-2.3 4.9-3.6 2.9-1.2 6.8-1.2 3.8 0 6.6 1.1 2.8 1.1 4.6 3.3 1.9 2.2 2.8 5.4 0.9 3.2 0.9 7.3zm-4.7 0.4q0-2.9-0.6-5.4-0.5-2.5-1.7-4.3-1.2-1.9-3.2-2.9-2-1-4.9-1-3 0-5 1.1-2 1.1-3.3 2.9-1.2 1.9-1.8 4.3-0.5 2.5-0.5 5.2 0 3 0.5 5.5 0.5 2.6 1.7 4.4 1.2 1.8 3.2 2.9 2 1 5 1 3 0 5-1.1 2-1.1 3.3-3 1.2-1.9 1.7-4.4 0.6-2.5 0.6-5.2z"/><path class="b" d="m303.6 35.8l-4.3-0.3 2.1-32.4 2.2-2h22.7l2.2 2 1.6 16.1-2.1 2.5-20.9 1.3-0.3-4.3 18.7-1.2-1.2-12.1h-18.7zm35.6-1.4l-4.4-0.2 1.6-31.6 4.4 0.2zm15.4-11.7l10.1-1.8 0.8 4.3-13.1 2.2-4 8.7-3.9-1.7 15.3-33.5h3.9l14 29.4-3.9 1.8-12-25.2zm30.8 11.4l-4.3-0.5 3.7-29.5 3.8-1.1 18.6 23.5v-23.3h4.3v29.5l-3.9 1.3-19.1-24.2zm57.4 0.8l-23.5-0.3-2.1-2.3 2.1-26 1.9-1.9 20.4-2.1 2.4 2.1 1 28.3zm-21-4.6l18.8 0.2-0.9-23.7-16.3 1.7z"/></svg>